# xmcd CD database file
#
# Track frame offsets:
#	150
#	826
#	19243
#	31901
#	53351
#	78056
#	92054
#	113653
#	131290
#	149317
#	163567
#	183408
#	198621
#	220123
#	239268
#	262227
#	278639
#	311870
#
# Disc length: 4471 seconds
#
# Revision: 0
# Processed by: cddbd v1.4PL0 Copyright (c) Steve Scherf et al.
# Submitted via: CDex 1.50
#
DISCID=e7117512
DTITLE=Represailles - Dit is een demo
DYEAR=2003
DGENRE=Nederhop
TTITLE0=Intro
TTITLE1=TikTakTacTiek
TTITLE2=Tijd voor Kwali
TTITLE3=Represailles R-lines
TTITLE4=AH-erlebnis
TTITLE5=Spring in de ring
TTITLE6=Lof is u Bettufiewt
TTITLE7=Bijlmer - Crooswijk
TTITLE8=Chill
TTITLE9=REPRstikkerplakkers
TTITLE10=Bommen
TTITLE11=Spelletjes
TTITLE12=Kiespijn
TTITLE13=Kwil
TTITLE14=FF zonder grappen
TTITLE15=Wespentailleskikkers
TTITLE16=Wolken
TTITLE17=Lof is u ( Live in Volta A'dam )
EXTD=YEAR: 2003
EXTT0=
EXTT1=
EXTT2=
EXTT3=
EXTT4=
EXTT5=
EXTT6=
EXTT7=
EXTT8=
EXTT9=
EXTT10=
EXTT11=
EXTT12=
EXTT13=
EXTT14=
EXTT15=
EXTT16=
EXTT17=
PLAYORDER=
